<svg width="55" height="54" viewBox="0 0 55 54" fill="none" xmlns="http://www.w3.org/2000/svg">
<path d="M17.7711 9.79974C18.5647 12.828 19.5988 14.8052 20.2923 15.4894C21.9536 17.1292 25.532 17.4929 27.5447 18.3281C28.1996 18.6009 30.0104 14.4461 29.34 14.0824C28.8453 13.8127 23.1002 13.0853 22.6116 12.9359C22.3604 12.8588 20.4541 10.3761 19.3753 8.97988C17.637 6.74222 17.3365 8.14616 17.7711 9.79974Z" fill="#F7A9A0"/>
<path d="M30.6901 18.9106C30.3819 18.9029 30.3711 19.0647 30.801 19.4207C31.231 19.7767 33.2329 20.8077 32.8122 21.4781C32.3914 22.1485 29.5882 20.6444 28.9178 20.0002C28.2475 19.356 27.386 18.08 27.386 18.08C27.9916 18.2634 29.5034 18.567 30.6901 18.9106Z" fill="#F7A9A0"/>
<path d="M28.8561 13.9514C31.8397 14.4137 33.0263 14.9978 34.3331 16.5235C34.4823 16.6883 34.5723 16.8982 34.589 17.1199C35.1869 17.7918 35.0513 18.2772 35.0513 18.2772C35.415 19.074 35.2054 19.5502 35.2054 19.5502C35.2054 19.5502 35.8989 20.3469 35.4859 20.8462C35.0235 21.4072 34.142 20.1774 33.2436 19.7983C31.1831 18.9276 28.0039 18.268 27.3875 18.0769L28.8561 13.9514Z" fill="#F7A9A0"/>
<path d="M31.7195 17.3726C32.3258 17.6194 32.9144 17.9078 33.481 18.2356C34.0783 18.6323 34.6449 19.0733 35.1762 19.5548C35.1798 19.5569 35.184 19.5577 35.1881 19.5571C35.1922 19.5565 35.196 19.5545 35.1988 19.5515C35.2017 19.5484 35.2034 19.5445 35.2038 19.5404C35.2042 19.5362 35.2031 19.5321 35.2008 19.5286C34.266 18.4971 33.0661 17.7418 31.7318 17.3449C31.701 17.3357 31.6887 17.3588 31.7195 17.3726Z" fill="#263238"/>
<path d="M32.0631 16.0519C32.6349 16.3447 33.6335 16.8672 35.0313 18.2942C35.0313 18.2942 35.0451 18.2942 35.0405 18.2942C34.2819 17.2792 33.2558 16.4953 32.077 16.0304C32.04 16.0088 32.0262 16.0319 32.0631 16.0519Z" fill="#263238"/>
<path d="M32.262 15.3461C33.2129 15.8824 33.7446 16.3401 34.5814 17.123C34.5814 17.123 34.5937 17.123 34.5891 17.1153C33.7338 16.1259 33.3115 15.8639 32.2775 15.3107C32.2405 15.2922 32.2251 15.3245 32.262 15.3461Z" fill="#263238"/>
<path d="M21.1553 11.1729L18.4076 13.748C18.4076 13.748 17.298 9.75351 17.3057 8.48982C17.3057 7.06431 18.0393 7.37869 19.0009 8.33571C19.9625 9.29272 21.1553 11.1729 21.1553 11.1729Z" fill="#D60665"/>
<path opacity="0.1" d="M21.1553 11.1729L18.4076 13.748C18.4076 13.748 17.298 9.75351 17.3057 8.48982C17.3057 7.06431 18.0393 7.37869 19.0009 8.33571C19.9625 9.29272 21.1553 11.1729 21.1553 11.1729Z" fill="black"/>
<path d="M20.5929 10.766C20.1983 11.0465 19.1334 12.0543 18.9547 12.2192C18.8607 12.3071 18.5031 12.6692 18.4091 12.7555C18.3968 12.7663 18.4091 12.7833 18.4276 12.7725C18.6079 12.6091 18.8052 12.4643 18.9855 12.2994C19.1658 12.1345 20.2877 11.1497 20.6052 10.7799C20.6129 10.7721 20.6021 10.7598 20.5929 10.766Z" fill="#263238"/>
<path d="M35.7171 42.0747C35.3442 42.1965 24.6059 41.7665 24.2037 41.5061C24.1544 41.4768 23.9633 39.4117 23.9633 39.4117L25.2054 31.4767L32.2558 31.5707L30.8951 38.3515C30.8951 38.3515 32.4485 39.0665 33.7291 39.6907C34.5182 40.0729 35.204 40.4227 35.3611 40.5506C35.7742 40.8804 36.0916 41.9545 35.7171 42.0747Z" fill="#F7A9A0"/>
<path d="M35.7186 42.0747C35.3457 42.1965 24.6043 41.7665 24.2036 41.5076C24.1558 41.4768 23.9617 39.4117 23.9617 39.4117L24.3454 36.9676L31.1092 37.2758L30.8904 38.3453C30.8904 38.3453 32.4423 39.0604 33.7245 39.683C34.5135 40.0651 35.1993 40.415 35.3565 40.5429C35.7726 40.8819 36.09 41.9561 35.7186 42.0747Z" fill="#EBEBEB"/>
<path d="M35.7124 42.0855C35.3318 42.2042 24.5226 41.953 24.1173 41.6818C23.9631 41.5816 23.9061 40.0035 23.8938 38.0956V38.0371L30.8703 38.1218V38.239C30.8703 38.239 34.965 40.1869 35.3795 40.5321C35.7941 40.8773 36.093 41.9715 35.7124 42.0855Z" fill="#C7C7C7"/>
<path d="M35.096 42.1164C32.7304 42.141 24.4625 41.9191 24.1173 41.6833C23.9631 41.5831 23.9061 40.0051 23.8938 38.0972V38.0386L28.2628 38.091L35.096 42.1164Z" fill="#A6A6A6"/>
<path d="M35.5999 41.6664C33.7783 41.5785 26.4243 41.3982 24.6181 41.4506C24.6027 41.4506 24.6027 41.4614 24.6181 41.4629C26.4212 41.5878 33.7753 41.708 35.5984 41.6956C35.6369 41.6956 35.6384 41.6679 35.5999 41.6664Z" fill="#263238"/>
<path d="M31.4498 38.2759C30.7363 38.1218 29.8564 38.2143 29.2923 38.7136C29.2707 38.7321 29.2923 38.7629 29.3216 38.7552C30.012 38.5504 30.7224 38.4202 31.4406 38.3669C31.4516 38.3663 31.4621 38.3618 31.4701 38.3542C31.4781 38.3466 31.4831 38.3364 31.4842 38.3254C31.4854 38.3144 31.4825 38.3034 31.4762 38.2943C31.4699 38.2852 31.4605 38.2787 31.4498 38.2759Z" fill="#263238"/>
<path d="M31.96 38.5996C31.2465 38.4455 30.3665 38.5395 29.8025 39.0373C29.7809 39.0558 29.8025 39.0866 29.8317 39.0804C30.5238 38.8763 31.2357 38.7471 31.9554 38.6951C31.968 38.6958 31.9804 38.6913 31.9898 38.6828C31.9992 38.6743 32.0048 38.6623 32.0054 38.6497C32.006 38.637 32.0016 38.6246 31.9931 38.6152C31.9846 38.6058 31.9726 38.6002 31.96 38.5996Z" fill="#263238"/>
<path d="M32.47 38.9232C31.7565 38.7691 30.8765 38.8631 30.3125 39.3609C30.2909 39.3809 30.3125 39.4102 30.3417 39.404C31.0321 39.1988 31.7425 39.0681 32.4607 39.0142C32.4718 39.0136 32.4822 39.0091 32.4902 39.0015C32.4982 38.9939 32.5033 38.9836 32.5044 38.9727C32.5055 38.9617 32.5026 38.9506 32.4963 38.9416C32.49 38.9325 32.4807 38.926 32.47 38.9232Z" fill="#263238"/>
<path d="M31.4869 37.3251L23.6165 36.9676C23.6165 36.9676 26.3366 25.9226 26.0468 25.5635C25.7386 25.1782 14.3438 28.0293 12.0661 25.2029C9.73288 22.3072 10.9026 18.1385 10.9026 18.1385H18.6743C18.6743 18.1385 18.5202 19.1819 18.625 19.6796C18.625 19.6796 29.5667 18.006 31.9461 19.2666C32.4084 19.5147 34.1036 20.9079 34.1314 22.2286C34.2809 28.0616 31.4869 37.3251 31.4869 37.3251Z" fill="#455A64"/>
<path d="M31.5654 35.8996C30.6315 35.7825 29.6961 35.7116 28.7576 35.6407C27.819 35.5698 26.8805 35.5143 25.942 35.4789C25.4119 35.4573 24.8817 35.4619 24.3516 35.4434C24.3489 35.4444 24.3465 35.4461 24.3449 35.4485C24.3432 35.4508 24.3423 35.4536 24.3423 35.4565C24.3423 35.4594 24.3432 35.4622 24.3449 35.4646C24.3465 35.4669 24.3489 35.4687 24.3516 35.4696C24.8232 35.5035 25.2932 35.5636 25.7648 35.6006L27.161 35.7023C28.0995 35.764 29.038 35.8164 29.9766 35.8734C30.5052 35.9057 31.0338 35.9227 31.5639 35.935C31.5678 35.9341 31.5712 35.9319 31.5737 35.9288C31.5763 35.9257 31.5777 35.9219 31.5779 35.9179C31.5781 35.9139 31.577 35.91 31.5747 35.9067C31.5725 35.9034 31.5692 35.9009 31.5654 35.8996Z" fill="#263238"/>
<path d="M27.2596 24.7791C25.7478 24.8284 24.2437 24.9594 22.7396 25.1074C21.2355 25.2553 19.7221 25.4156 18.2057 25.5142C17.4536 25.562 16.6985 25.5928 15.9434 25.5974C15.3162 25.6244 14.6884 25.5589 14.0802 25.4033C13.4764 25.2268 12.9603 24.831 12.6331 24.2937C12.3042 23.7491 12.0888 23.1436 11.9997 22.5137C11.8009 21.2392 11.9997 19.937 12.2324 18.6795C12.2617 18.5254 12.291 18.3713 12.3187 18.2048C12.3187 18.191 12.2987 18.1848 12.2941 18.2048C11.9859 19.4731 11.6977 20.7785 11.7901 22.0884C11.8279 22.7312 11.9847 23.3613 12.2525 23.9469C12.494 24.5159 12.9094 24.9939 13.4391 25.3123C13.98 25.6205 14.6196 25.7115 15.2406 25.7423C15.9649 25.7793 16.6985 25.7423 17.4228 25.7099C18.9731 25.6344 20.5173 25.4741 22.0584 25.3139C23.5995 25.1536 25.1329 24.9964 26.6817 24.9194C26.8527 24.9101 27.0238 24.9039 27.1949 24.8978C26.9606 26.2848 24.9772 34.5419 24.8663 35.1953C24.8555 35.2601 24.9171 35.2801 24.9341 35.2138C25.2731 33.927 27.1979 25.6591 27.3258 24.8515C27.3279 24.8422 27.3277 24.8324 27.3252 24.8231C27.3227 24.8138 27.318 24.8053 27.3115 24.7982C27.305 24.7911 27.2969 24.7856 27.2878 24.7823C27.2788 24.779 27.2691 24.7779 27.2596 24.7791Z" fill="#263238"/>
<path d="M33.3269 42.3968H16.5074V44.2569H33.3269V42.3968Z" fill="#D60665"/>
<path d="M1.72681 26.0782H2.68074L8.84509 33.1303H7.89116L1.72681 26.0782Z" fill="#A6A6A6"/>
<path d="M13.7412 25.5188H0.484741V26.0767H13.7412V25.5188Z" fill="#A6A6A6"/>
<path d="M5.32373 26.0782H6.27766L12.442 33.1303H11.4881L5.32373 26.0782Z" fill="#A6A6A6"/>
<path d="M11.4573 39.0789C16.247 39.0789 19.0225 42.4061 19.0225 46.322C19.0225 50.2379 16.452 53.4896 11.7809 53.4896C6.61213 53.4896 4.14331 49.3779 4.14331 46.2865C4.14331 43.1951 6.60905 39.0789 11.4573 39.0789Z" fill="#37474F"/>
<path d="M10.7207 39.0789C15.2746 39.0789 17.9114 42.4061 17.9114 46.322C17.9114 50.2379 15.4688 53.4896 11.0259 53.4896C6.11133 53.4896 3.76733 49.3718 3.76733 46.2804C3.76733 43.1889 6.11133 39.0789 10.7207 39.0789Z" fill="#263238"/>
<path d="M10.7669 41.8914C13.5408 41.8914 15.1482 43.9194 15.1482 46.305C15.1482 48.6906 13.6595 50.6709 10.9533 50.6709C7.95747 50.6709 6.52734 48.1651 6.52734 46.2804C6.52734 44.3956 7.95747 41.8914 10.7669 41.8914Z" fill="#C7C7C7"/>
<path d="M25.0158 30.2993V29.669L8.89758 30.1883V31.6061C8.89758 31.6061 4.22963 36.7611 3.75806 42.1194L19.921 42.4615L22.5177 42.3968H25.7062V39.1575C25.7062 39.1575 23.296 37.4006 23.7182 33.8114C23.8585 32.6202 25.0158 30.2993 25.0158 30.2993Z" fill="#D60665"/>
<path d="M18.4153 41.711C18.2473 42.0192 15.7955 42.4615 11.1475 42.5864C6.96349 42.6989 3.83816 42.6064 3.59621 42.3367C3.35426 42.067 3.97069 37.2974 6.80321 34.7145C9.63573 32.1316 13.6456 31.7602 16.2901 33.3013C18.6157 34.6528 20.3509 38.0879 18.4153 41.711Z" fill="#D60665"/>
<path opacity="0.1" d="M19.2043 37.1957C18.9558 36.0662 18.3827 35.034 17.5554 34.226C16.726 33.395 15.6904 32.7998 14.5549 32.5015C13.2882 32.1853 11.9616 32.1997 10.7021 32.5431C10.0718 32.7084 9.46227 32.9447 8.8852 33.2474C8.27593 33.5748 7.70171 33.9636 7.17151 34.4078C7.02973 34.5249 6.88641 34.6421 6.74617 34.7623C6.73385 34.7715 6.74617 34.7885 6.76467 34.7792C7.29812 34.3101 7.87563 33.8936 8.48914 33.5356C9.04898 33.2158 9.64293 32.96 10.2599 32.7727C11.483 32.3902 12.7819 32.3171 14.0401 32.5601C15.1774 32.7886 16.2314 33.3212 17.09 34.1011C17.9173 34.846 18.5258 35.8024 18.8499 36.8674C19.2351 38.165 19.1088 39.5936 18.725 40.8742C18.6742 41.0468 18.6187 41.2163 18.5617 41.3859C18.5617 41.4044 18.5833 41.4105 18.5894 41.3936C19.1072 40.0636 19.4941 38.6304 19.2043 37.1957Z" fill="black"/>
<path d="M8.0006 43.078C5.19428 43.078 3.70867 42.9917 2.95508 42.6927L3.3049 41.8128C4.18641 42.1626 6.94649 42.1564 11.3879 42.1056C14.6689 42.067 17.0899 41.7573 18.6002 41.1809L18.9377 42.0655C17.3041 42.6819 14.8384 43.0086 11.3987 43.0487C10.0934 43.0672 8.9684 43.078 8.0006 43.078Z" fill="#DBDBDB"/>
<path d="M25.2808 30.0835C25.2808 30.0835 25.3887 26.5575 25.2808 26.4188C25.1729 26.2801 8.85587 25.9858 8.36735 26.0289C7.87882 26.0721 7.82951 30.1899 7.86649 30.3825C7.90348 30.5751 24.8554 30.1205 25.2808 30.0835Z" fill="#37474F"/>
<path d="M26.8096 26.4897C26.7619 26.4342 24.6937 26.3757 24.5797 26.3726C24.4656 26.3695 24.4256 30.1282 24.4872 30.1251C24.5489 30.1221 26.7341 30.1529 26.8066 30.0727C26.879 29.9926 26.9129 26.6099 26.8096 26.4897Z" fill="#455A64"/>
<path d="M15.3809 26.032C15.3224 26.0929 15.2842 26.1705 15.2714 26.2539C15.2521 26.3419 15.2382 26.4309 15.2298 26.5205C15.2098 26.6993 15.199 26.8812 15.1898 27.0615C15.1743 27.4252 15.1651 27.7904 15.1589 28.1572C15.1528 28.524 15.1435 28.8876 15.1589 29.2498C15.1603 29.4292 15.1727 29.6083 15.1959 29.7861C15.2052 29.8721 15.2254 29.9565 15.256 30.0373C15.2673 30.0736 15.2872 30.1065 15.3141 30.1334C15.3409 30.1602 15.3739 30.1801 15.4101 30.1914C15.3695 30.1902 15.33 30.1774 15.2964 30.1545C15.2628 30.1315 15.2365 30.0994 15.2206 30.062C15.1775 29.9814 15.1438 29.896 15.1204 29.8077C15.0768 29.627 15.0484 29.443 15.0356 29.2575C15.0072 28.8884 14.9979 28.518 15.0079 28.1479C15.0172 27.7796 15.0326 27.4097 15.0742 27.0414C15.0942 26.8572 15.1235 26.6741 15.162 26.4928C15.1835 26.4031 15.2098 26.3146 15.2406 26.2277C15.2653 26.1522 15.3084 26.0582 15.3809 26.032Z" fill="#455A64"/>
<path d="M1.09811 25.5111L16.5074 25.5111V15.9317L1.09811 15.9317L1.09811 25.5111Z" fill="#37474F"/>
<path d="M1.09814 25.5111H12.231L12.231 15.9317L1.09814 15.9317L1.09814 25.5111Z" fill="#263238"/>
<path d="M7.26395 15.9302H6.06653V25.5096H7.26395V15.9302Z" fill="#D60665"/>
<path d="M12.2325 15.0441H0.785278V15.9302H12.2325V15.0441Z" fill="#37474F"/>
<path d="M16.8527 15.0441H12.231V15.9302H16.8527V15.0441Z" fill="#263238"/>
<path d="M7.36415 15.0441H5.96484V15.9302H7.36415V15.0441Z" fill="#D60665"/>
<path d="M2.73012 15.0841L13.9785 15.0841V8.09068L2.73012 8.09068V15.0841Z" fill="#37474F"/>
<path d="M2.73005 15.0841L10.8562 15.0841V8.09068H2.73005V15.0841Z" fill="#263238"/>
<path d="M7.23012 8.09222H6.35632V15.0857H7.23012V8.09222Z" fill="#D60665"/>
<path d="M10.8563 7.44495H2.50049V8.0922H10.8563V7.44495Z" fill="#37474F"/>
<path d="M14.2296 7.44495H10.8562V8.0922H14.2296V7.44495Z" fill="#263238"/>
<path d="M7.30409 7.44495H6.28235V8.0922H7.30409V7.44495Z" fill="#D60665"/>
<path d="M46.6373 39.0203C51.4285 39.0203 54.2025 42.3475 54.2025 46.2634C54.2025 50.1793 51.6319 53.4264 46.9594 53.4264C41.789 53.4264 39.3202 49.3148 39.3202 46.2249C39.3202 43.135 41.789 39.0203 46.6373 39.0203Z" fill="#37474F"/>
<path d="M45.9006 39.0203C50.4545 39.0203 53.0929 42.3475 53.0929 46.2634C53.0929 50.1793 50.6487 53.4264 46.2073 53.4264C41.2928 53.4264 38.9457 49.3148 38.9457 46.2249C38.9457 43.135 41.2928 39.0203 45.9006 39.0203Z" fill="#263238"/>
<path d="M45.9469 41.8328C48.7208 41.8328 50.3297 43.8609 50.3297 46.2465C50.3297 48.6321 48.841 50.6124 46.1333 50.6124C43.139 50.6124 41.7089 48.1066 41.7089 46.2234C41.7089 44.3401 43.139 41.8328 45.9469 41.8328Z" fill="#C7C7C7"/>
<path d="M38.8871 22.6616H37.0024L35.7109 20.7661H37.9193L38.8871 22.6616Z" fill="#D60665"/>
<path d="M35.7109 20.7661L36.4676 21.8757L37.0024 22.6616H38.8871L38.377 21.663L37.9178 20.7661H35.7109Z" fill="#D60665"/>
<path opacity="0.1" d="M35.7109 20.7661L36.4676 21.8757L38.377 21.663L37.9178 20.7661H35.7109Z" fill="black"/>
<path d="M43.4673 36.8073L41.6318 37.2295L39.949 35.67L42.1003 35.1768L43.4673 36.8073Z" fill="#D60665"/>
<path d="M39.949 35.67L40.9337 36.5838L41.6303 37.2295L43.4688 36.8073L42.7476 35.9489L42.1003 35.1768L39.949 35.67Z" fill="#D60665"/>
<path opacity="0.1" d="M39.949 35.67L40.9337 36.5838L42.7476 35.9489L42.1003 35.1768L39.949 35.67Z" fill="black"/>
<path d="M53.7863 39.945L52.0033 40.8819C52.0033 40.8819 46.8391 39.945 43.5273 40.6539C40.2155 41.3628 39.3217 43.1319 39.3217 43.1319H37.6481C37.6481 43.1319 39.0844 38.0294 41.5208 36.177C43.9573 34.3246 47.8732 34.7392 50.0384 35.9058C52.2036 37.0724 53.7863 39.945 53.7863 39.945Z" fill="#D60665"/>
<path opacity="0.1" d="M51.8153 40.529C51.4699 40.1684 51.0957 39.8365 50.6964 39.5366C50.3008 39.229 49.8825 38.9519 49.4451 38.7074C48.5971 38.2363 47.6672 37.9308 46.705 37.8075C44.8218 37.5763 42.8523 38.1249 41.4653 39.572C40.6855 40.3919 40.1307 41.3982 39.6037 42.4138C39.596 42.4292 39.6176 42.4415 39.6253 42.4261C40.0718 41.5331 40.6357 40.7039 41.302 39.9604C41.944 39.2594 42.743 38.7207 43.6336 38.3884C45.4105 37.7366 47.3322 37.9862 49.0398 38.7737C49.5287 38.9953 50.0005 39.2529 50.4514 39.5443C50.9125 39.8548 51.3574 40.1886 51.7844 40.5444C51.7872 40.5469 51.7907 40.5485 51.7943 40.549C51.798 40.5495 51.8018 40.5489 51.8051 40.5473C51.8085 40.5456 51.8112 40.543 51.813 40.5397C51.8148 40.5364 51.8156 40.5327 51.8153 40.529Z" fill="black"/>
<path d="M32.2204 21.6415C32.1927 21.7062 28.471 22.3904 28.471 22.3904C28.471 22.3904 27.8545 21.9743 28.2352 21.4473L31.9692 20.6413C32.1128 20.7591 32.2147 20.9198 32.2599 21.0999C32.3052 21.28 32.2913 21.4698 32.2204 21.6415Z" fill="#263238"/>
<path d="M40.0321 16.8302V21.2454C40.0321 21.2454 37.6481 21.0374 37.0131 21.0158C36.3782 20.9942 33.5565 21.3594 33.5565 21.3594L33.3376 20.3701C33.3376 20.3701 35.5137 19.6103 36.4383 19.017C37.363 18.4237 38.4279 17.2894 38.9996 17.0382C39.3232 16.8903 39.6765 16.8192 40.0321 16.8302Z" fill="#D60665"/>
<path d="M33.5658 20.2452C33.7075 20.391 33.8144 20.567 33.8785 20.7599C33.9425 20.9529 33.9621 21.1579 33.9356 21.3594C33.9356 21.3594 32.1587 21.6846 32.1372 21.6846C32.1519 21.4756 32.1012 21.2671 31.9922 21.0882C31.8831 20.9092 31.721 20.7687 31.5284 20.686L33.5658 20.2452Z" fill="#DBDBDB"/>
<path d="M40.0552 21.2454C40.7004 21.2454 41.2234 20.2574 41.2234 19.0386C41.2234 17.8198 40.7004 16.8317 40.0552 16.8317C39.4101 16.8317 38.8871 17.8198 38.8871 19.0386C38.8871 20.2574 39.4101 21.2454 40.0552 21.2454Z" fill="#DBDBDB"/>
<path d="M40.1277 21.0081C40.6801 21.0081 41.1279 20.1263 41.1279 19.0385C41.1279 17.9508 40.6801 17.069 40.1277 17.069C39.5754 17.069 39.1276 17.9508 39.1276 19.0385C39.1276 20.1263 39.5754 21.0081 40.1277 21.0081Z" fill="white"/>
<path d="M40.4313 22.6678C40.8196 23.2365 42.3746 30.9697 42.6797 31.358C42.9849 31.7464 43.5689 31.7741 43.5689 31.7741L44.5968 34.3292C44.5968 34.3292 42.0433 35.1352 40.6255 36.3003C38.7931 37.8059 37.0994 42.7975 37.0994 42.7975C36.822 42.9917 33.3793 44.4079 32.4346 44.4634C32.4346 44.4634 36.8251 39.6429 37.1827 32.9715C37.3214 30.3871 35.731 26.7471 35.6277 24.944C35.5137 23.0084 36.0993 22.6678 37.1272 22.6678H40.4313Z" fill="#D60665"/>
<path d="M32.2235 45.0136L31.5361 44.3633C35.3889 40.2855 36.8097 33.8607 36.6972 32.107C36.6387 31.2085 36.3505 30.2037 36.0438 29.1388C35.7171 28.0031 35.3472 26.7163 35.1901 25.3185C35.0436 24.0209 35.19 23.1825 35.6323 22.6817C36.0746 22.1808 36.6818 22.1824 37.0856 22.1839H40.7534V23.1301H37.084C36.7311 23.1301 36.4907 23.1425 36.3382 23.3135C36.1856 23.4846 35.9868 23.93 36.1317 25.2137C36.2858 26.5313 36.6233 27.7241 36.9546 28.8769C37.2751 29.9926 37.571 31.0452 37.6419 32.0453C37.7621 33.9178 36.2842 40.734 32.2235 45.0136Z" fill="#DBDBDB"/>
<path d="M42.6982 33.4678C42.914 34.263 43.5936 34.7684 44.2162 34.5989C44.8388 34.4294 45.1701 33.6481 44.9528 32.8544C44.7355 32.0608 44.0559 31.5522 43.4333 31.7217C42.8107 31.8912 42.4809 32.6741 42.6982 33.4678Z" fill="#DBDBDB"/>
<path d="M42.9294 33.4046C43.1221 34.1135 43.7108 34.5696 44.244 34.4248C44.7772 34.2799 45.0515 33.588 44.8604 32.8837C44.6693 32.1794 44.0791 31.7186 43.5474 31.8635C43.0157 32.0084 42.7368 32.6957 42.9294 33.4046Z" fill="white"/>
<path opacity="0.1" d="M39.972 33.3398C39.801 32.54 39.616 31.7433 39.4558 30.9419C39.2955 30.1406 39.1475 29.3376 39.0227 28.5317C38.901 27.7811 38.77 27.0229 38.7222 26.2632C38.6744 25.4695 38.7222 24.6681 39.1075 23.9515C39.1083 23.9501 39.1088 23.9486 39.109 23.9469C39.1092 23.9453 39.1091 23.9437 39.1087 23.9421C39.1083 23.9405 39.1075 23.9391 39.1065 23.9378C39.1055 23.9365 39.1043 23.9354 39.1029 23.9346C39.1014 23.9338 39.0999 23.9333 39.0983 23.9331C39.0966 23.9328 39.095 23.933 39.0934 23.9334C39.0918 23.9338 39.0904 23.9346 39.0891 23.9356C39.0878 23.9366 39.0867 23.9378 39.0859 23.9392C38.6898 24.5171 38.5604 25.2122 38.5388 25.901C38.5408 26.6605 38.6079 27.4184 38.7392 28.1664C38.964 29.809 39.2726 31.439 39.6638 33.0501C39.8873 33.9609 40.1755 34.8563 40.4837 35.7409C40.4837 35.7437 40.4848 35.7465 40.4868 35.7485C40.4889 35.7505 40.4916 35.7516 40.4945 35.7516C40.4973 35.7516 40.5001 35.7505 40.5021 35.7485C40.5041 35.7465 40.5052 35.7437 40.5052 35.7409C40.3213 34.9364 40.1436 34.1361 39.972 33.3398Z" fill="black"/>
<path opacity="0.1" d="M25.7061 39.1575V42.3937H22.9445V39.9434C22.9445 39.9434 21.4034 39.1652 21.0952 36.3342C20.8178 33.7698 22.8644 30.3471 23.2527 29.726L25.0111 29.669V30.2993C25.0111 30.2993 23.8538 32.6202 23.7135 33.8114C23.2959 37.4006 25.7061 39.1575 25.7061 39.1575Z" fill="black"/>
<path d="M32.6518 43.1504C32.2789 43.2706 21.539 42.8422 21.1368 42.5818C21.089 42.5525 20.8979 40.4859 20.8979 40.4859L22.1401 32.5508L29.1905 32.6448L27.8298 39.4256C27.8298 39.4256 29.3816 40.1391 30.6638 40.7633C31.4529 41.147 32.1386 41.4968 32.2958 41.6232C32.7073 41.9561 33.0248 43.0302 32.6518 43.1504Z" fill="#F7A9A0"/>
<path d="M32.6534 43.1504C32.279 43.2706 21.5391 42.8422 21.1384 42.5818C21.0891 42.5525 20.8965 40.4874 20.8965 40.4874L21.2802 38.0417L28.0441 38.3499L27.8298 39.4164C27.8298 39.4164 29.3817 40.1314 30.6639 40.754C31.4514 41.1378 32.1387 41.4876 32.2959 41.614C32.7074 41.9576 33.0248 43.0302 32.6534 43.1504Z" fill="#EBEBEB"/>
<path d="M32.6457 43.1643C32.2666 43.283 21.4558 43.0302 21.0505 42.759C20.8964 42.6588 20.8409 41.0823 20.8286 39.1744V39.1143L27.8036 39.1991V39.3177C27.8036 39.3177 31.8982 41.2641 32.3128 41.6093C32.7274 41.9545 33.0263 43.0456 32.6457 43.1643Z" fill="#C7C7C7"/>
<path d="M32.5332 42.7405C30.7132 42.6542 23.3591 42.4739 21.5529 42.5263C21.5375 42.5263 21.5375 42.537 21.5529 42.537C23.356 42.6634 30.7101 42.7836 32.5332 42.7713C32.5717 42.7698 32.5717 42.742 32.5332 42.7405Z" fill="#263238"/>
<path d="M28.3846 39.3501C27.6711 39.196 26.7911 39.29 26.2271 39.7877C26.204 39.8078 26.2271 39.8371 26.2564 39.8309C26.9467 39.6255 27.6571 39.4948 28.3754 39.441C28.3864 39.4404 28.3968 39.4359 28.4049 39.4283C28.4129 39.4207 28.4179 39.4105 28.419 39.3995C28.4201 39.3885 28.4173 39.3775 28.4109 39.3684C28.4046 39.3594 28.3953 39.3529 28.3846 39.3501Z" fill="#263238"/>
<path d="M28.8947 39.6752C28.1811 39.5211 27.3012 39.6136 26.7371 40.1114C26.7156 40.1314 26.7371 40.1622 26.7664 40.1545C27.4573 39.949 28.1682 39.8183 28.887 39.7646C28.8928 39.7651 28.8987 39.7645 28.9044 39.7627C28.91 39.7609 28.9152 39.7581 28.9197 39.7543C28.9242 39.7505 28.9279 39.7458 28.9306 39.7406C28.9333 39.7354 28.935 39.7297 28.9355 39.7238C28.936 39.7179 28.9354 39.712 28.9336 39.7064C28.9318 39.7008 28.9289 39.6956 28.9251 39.6911C28.9214 39.6866 28.9167 39.6828 28.9115 39.6801C28.9063 39.6774 28.9005 39.6757 28.8947 39.6752Z" fill="#263238"/>
<path d="M29.4048 39.9989C28.6913 39.8448 27.8113 39.9372 27.2473 40.4365C27.2257 40.455 27.2473 40.4859 27.2766 40.4782C27.9672 40.2741 28.6775 40.1439 29.3956 40.0898C29.4066 40.0892 29.4171 40.0847 29.4251 40.0771C29.4331 40.0695 29.4381 40.0593 29.4392 40.0483C29.4403 40.0373 29.4375 40.0263 29.4311 40.0172C29.4248 40.0082 29.4155 40.0017 29.4048 39.9989Z" fill="#263238"/>
<path d="M28.4247 38.4008L20.5543 38.0417C20.5543 38.0417 23.2759 26.9967 22.9862 26.6376C22.6779 26.2508 12.3003 29.1034 10.021 26.277C7.68778 23.3813 10.021 18.5346 10.021 18.5346H17.9992C17.9992 18.5346 17.9992 19.4223 17.4567 20.7507C17.4567 20.7507 26.5029 19.0755 28.887 20.3361C29.357 20.5858 31.0445 21.9789 31.0722 23.2997C31.2109 29.1404 28.4247 38.4008 28.4247 38.4008Z" fill="#455A64"/>
<path d="M28.5002 36.9753C27.5663 36.8582 26.6293 36.7857 25.6908 36.7164C24.7522 36.647 23.8153 36.59 22.8752 36.553C22.3466 36.533 21.8165 36.5376 21.2863 36.5176C21.2827 36.5176 21.2791 36.519 21.2765 36.5216C21.2739 36.5242 21.2725 36.5278 21.2725 36.5314C21.2725 36.5351 21.2739 36.5387 21.2765 36.5413C21.2791 36.5439 21.2827 36.5453 21.2863 36.5453C21.7579 36.5792 22.2279 36.6378 22.6995 36.6748C23.1711 36.7118 23.6242 36.7457 24.0957 36.7765C25.0327 36.8397 25.9712 36.8905 26.9098 36.9491C27.4399 36.9814 27.9685 36.9984 28.4986 37.0107C28.5025 37.0098 28.506 37.0076 28.5085 37.0045C28.511 37.0014 28.5125 36.9976 28.5126 36.9936C28.5128 36.9896 28.5117 36.9857 28.5094 36.9824C28.5072 36.9791 28.5039 36.9766 28.5002 36.9753Z" fill="#263238"/>
<path d="M13.3575 19.2019C13.3471 19.2344 13.3337 19.2659 13.3174 19.2959C13.3157 19.2981 13.3147 19.3008 13.3147 19.3036C13.3147 19.3064 13.3157 19.3091 13.3174 19.3113C13.225 19.5995 13.1865 19.9046 13.0971 20.1944C13.0122 20.5019 12.8239 20.7708 12.5639 20.9557C12.0183 21.3348 11.3633 21.5058 10.7284 21.663C10.7246 21.6642 10.7213 21.6665 10.7189 21.6697C10.7165 21.6729 10.7152 21.6768 10.7152 21.6808C10.7152 21.6847 10.7165 21.6886 10.7189 21.6918C10.7213 21.695 10.7246 21.6973 10.7284 21.6985C11.0944 21.7005 11.4585 21.6449 11.8072 21.5336C12.1348 21.4429 12.4437 21.2947 12.7195 21.0959C12.9785 20.8999 13.1633 20.6217 13.2435 20.3069C13.2822 20.1395 13.3126 19.9703 13.3344 19.7999C13.3701 19.6039 13.3912 19.4056 13.3976 19.2065C13.3953 19.2035 13.3925 19.201 13.3892 19.1991C13.3859 19.1972 13.3823 19.196 13.3785 19.1956C13.3748 19.1952 13.371 19.1955 13.3674 19.1966C13.3638 19.1977 13.3604 19.1995 13.3575 19.2019Z" fill="#263238"/>
<path d="M18.7404 20.3562C18.3065 20.4814 17.8838 20.6428 17.4767 20.8386L17.4567 20.8478C17.4651 20.8227 17.4713 20.7969 17.4752 20.7707C17.4752 20.7399 17.4844 20.7106 17.4906 20.6798C17.4968 20.649 17.4906 20.6166 17.4999 20.5843V20.535C17.5523 20.5316 17.6035 20.5174 17.6502 20.4932C17.6968 20.4691 17.738 20.4356 17.7711 20.3947C17.8562 20.2765 17.9136 20.1406 17.9391 19.9971C17.9868 19.8184 18.0315 19.6365 18.0701 19.4547C18.1086 19.2728 18.1502 19.0494 18.1826 18.8382C18.2217 18.6385 18.2449 18.436 18.2519 18.2326C18.2519 18.2252 18.249 18.2182 18.2438 18.213C18.2386 18.2078 18.2315 18.2048 18.2242 18.2048C18.2168 18.2048 18.2098 18.2078 18.2046 18.213C18.1994 18.2182 18.1964 18.2252 18.1964 18.2326C18.1487 18.419 18.1271 18.6117 18.0916 18.7997C18.0562 18.9877 18.0161 19.1773 17.973 19.3653C17.9298 19.5533 17.8836 19.7413 17.8312 19.9262C17.7788 20.1112 17.7387 20.3315 17.5476 20.3886C17.1531 20.5011 17.3303 19.618 17.3473 19.4423C17.3874 19.0416 17.412 18.6317 17.4829 18.2341C17.4829 18.2187 17.4598 18.211 17.4567 18.2341C17.3704 18.5994 17.2733 18.9584 17.2086 19.3283C17.1762 19.5101 17.1531 19.6935 17.1331 19.8754C17.1011 20.0329 17.1139 20.1963 17.1701 20.3469C17.1945 20.3978 17.231 20.442 17.2764 20.4755C17.3218 20.5091 17.3747 20.5311 17.4305 20.5396L17.4182 20.5812C17.4089 20.6105 17.3997 20.6398 17.392 20.669C17.3843 20.6983 17.3781 20.7291 17.3719 20.7584C17.3584 20.7932 17.3536 20.8308 17.3581 20.8678C17.3615 20.8782 17.3686 20.887 17.3781 20.8925C17.2101 20.9649 17.0406 21.0374 16.8742 21.1159C16.6649 21.1981 16.4624 21.2966 16.2685 21.4103C16.2454 21.4211 16.2685 21.4519 16.2855 21.4473C16.5025 21.3864 16.7147 21.3096 16.9204 21.2177C17.1315 21.1375 17.3396 21.0512 17.5492 20.9634C17.9643 20.811 18.3659 20.6238 18.7497 20.404C18.756 20.4027 18.7616 20.399 18.7652 20.3937C18.7688 20.3884 18.7702 20.3818 18.7689 20.3755C18.7677 20.3691 18.764 20.3635 18.7587 20.3599C18.7533 20.3563 18.7468 20.355 18.7404 20.3562Z" fill="#263238"/>
<path d="M30.838 22.2964C30.565 21.4938 30.0125 20.8162 29.2815 20.387C28.531 19.9724 27.6556 19.8615 26.8157 19.8353C25.8387 19.806 24.8555 19.8569 23.88 19.9185C22.8413 19.9832 21.8026 20.0819 20.77 20.2267C19.7375 20.3716 18.7235 20.5488 17.7079 20.7676C17.4644 20.82 17.2225 20.8848 16.9805 20.9526C16.962 20.9526 16.9651 20.9926 16.9805 20.9896C17.9899 20.8478 18.9947 20.6813 20.0041 20.5426C21.0135 20.404 22.0337 20.2945 23.0539 20.2175C24.0741 20.1404 25.0836 20.0973 26.0991 20.0819C26.9313 20.0695 27.7943 20.0819 28.5849 20.35C28.9758 20.4749 29.3379 20.6766 29.6498 20.9433C29.9562 21.2173 30.2073 21.5474 30.3895 21.9158C30.8056 22.7341 30.8441 23.6726 30.8857 24.5788C31.006 27.268 29.0719 35.8133 28.7282 37.1864C28.7273 37.1983 28.7307 37.2102 28.7377 37.2199C28.7446 37.2296 28.7548 37.2365 28.7664 37.2395C28.778 37.2424 28.7903 37.2412 28.801 37.236C28.8118 37.2308 28.8204 37.222 28.8253 37.2111C29.2121 35.6607 31.1369 27.5885 31.1369 25.1628C31.1385 24.195 31.1739 23.2087 30.838 22.2964Z" fill="#263238"/>
<path d="M24.142 25.7069C22.7319 25.7562 21.3295 25.8872 19.9271 26.0351C18.5247 26.183 17.1116 26.3433 15.6999 26.4419C14.9972 26.4897 14.2929 26.5205 13.5886 26.5252C13.0031 26.5526 12.4169 26.4871 11.8518 26.331C11.2779 26.1456 10.7956 25.7497 10.5018 25.2229C10.1935 24.671 9.99318 24.0653 9.91159 23.4384C9.72666 22.1639 9.91159 20.8617 10.1289 19.6041C10.1566 19.45 10.1828 19.2959 10.2106 19.131C10.2106 19.1156 10.1905 19.1095 10.1874 19.131C9.8931 20.3993 9.62957 21.7046 9.72512 23.0146C9.76013 23.6548 9.90559 24.2841 10.1551 24.8747C10.3726 25.4336 10.7595 25.9105 11.2616 26.2385C11.7787 26.5152 12.355 26.6627 12.9414 26.6685C13.6201 26.6939 14.2996 26.6831 14.9771 26.6361C16.4227 26.5606 17.8621 26.4003 19.2999 26.2401C20.7377 26.0798 22.1663 25.9226 23.6057 25.8455C23.7598 25.8378 23.9247 25.8301 24.0834 25.8255C23.8661 27.2048 22.0168 35.4681 21.9136 36.1215C21.9028 36.1862 21.9614 36.2063 21.9768 36.1416C22.285 34.8532 24.0881 26.5868 24.2067 25.7777C24.2088 25.7685 24.2086 25.759 24.2062 25.7499C24.2038 25.7408 24.1992 25.7324 24.1928 25.7254C24.1865 25.7185 24.1785 25.7132 24.1697 25.7099C24.1608 25.7067 24.1513 25.7056 24.142 25.7069Z" fill="#263238"/>
<path d="M9.56328 19.5194C9.58486 19.5502 20.1274 20.3608 20.2384 20.2622C20.3925 20.1219 19.3492 9.32046 18.4076 7.73622C18.2057 7.39873 17.4336 7.2215 16.7571 7.22766C16.5809 7.22681 16.405 7.24176 16.2316 7.27236H16.2146C16.0746 7.29617 15.9396 7.34359 15.8155 7.41259C13.7905 8.67629 11.6299 13.6663 11.0859 15.1766C10.1843 17.667 9.48468 19.4084 9.56328 19.5194Z" fill="#D60665"/>
<path d="M17.9221 9.11396C17.3982 9.11396 16.5136 8.2679 16.3379 7.47424C16.3256 7.41876 16.5429 6.94565 16.7771 6.35695C16.9189 5.99788 17.0684 5.59719 17.1778 5.22117C17.1994 5.14257 19.3708 6.48024 19.3708 6.48024C19.0995 6.91184 18.8821 7.37505 18.7235 7.85951C18.7092 7.90992 18.6994 7.96149 18.6942 8.01362C18.6948 8.02234 18.6948 8.0311 18.6942 8.03982C18.6526 8.35266 18.4816 9.12166 17.9221 9.11396Z" fill="#F7A9A0"/>
<path d="M18.6942 8.01824C18.6949 8.02696 18.6949 8.03571 18.6942 8.04443C18.6111 8.03233 18.5291 8.01325 18.4492 7.98742C17.0622 7.55283 17.2071 5.7066 17.2657 5.24582C17.6679 5.42767 19.3754 6.47869 19.3754 6.47869C19.1044 6.91064 18.8865 7.37375 18.7266 7.85796C18.7116 7.91046 18.7008 7.96405 18.6942 8.01824Z" fill="#263238"/>
<path d="M17.3704 2.33316C16.9898 3.16227 17.1069 5.72355 17.6447 6.35848C18.4261 7.28313 19.8747 7.56207 20.7053 6.58502C21.5098 5.63725 21.2986 2.30696 20.6822 1.70748C19.7714 0.825978 17.9344 1.11108 17.3704 2.33316Z" fill="#F7A9A0"/>
<path d="M19.602 4.15781C19.602 4.15781 19.5897 4.16705 19.5897 4.17476C19.602 4.34582 19.5897 4.54616 19.4355 4.60935C19.4355 4.60935 19.4355 4.62013 19.4355 4.61859C19.6251 4.58469 19.6405 4.31962 19.602 4.15781Z" fill="#263238"/>
<path d="M19.4402 3.9852C19.1628 3.97441 19.1643 4.53229 19.4217 4.54153C19.679 4.55078 19.6744 3.99291 19.4402 3.9852Z" fill="#263238"/>
<path d="M20.6006 4.18555C20.6006 4.18555 20.6144 4.19325 20.6129 4.20096C20.6129 4.37202 20.6314 4.57082 20.787 4.62784C20.787 4.62784 20.787 4.63863 20.787 4.63708C20.5959 4.61089 20.5651 4.34736 20.6006 4.18555Z" fill="#263238"/>
<path d="M20.7547 4.00525C21.0305 3.98368 21.0537 4.54001 20.7963 4.5585C20.5389 4.577 20.522 4.02066 20.7547 4.00525Z" fill="#263238"/>
<path d="M19.2213 3.73092C19.2941 3.70916 19.3656 3.68343 19.4356 3.65387C19.5153 3.63851 19.5875 3.59671 19.6405 3.5352C19.6537 3.51261 19.659 3.48632 19.6556 3.4604C19.6523 3.43449 19.6405 3.4104 19.622 3.39188C19.5801 3.36116 19.5306 3.34224 19.4788 3.33709C19.4271 3.33194 19.3749 3.34075 19.3277 3.3626C19.2249 3.39149 19.1369 3.45809 19.0811 3.54907C19.0699 3.57048 19.065 3.59466 19.0671 3.61874C19.0692 3.64282 19.0782 3.6658 19.0929 3.68494C19.1077 3.70408 19.1277 3.71859 19.1504 3.72674C19.1732 3.73489 19.1978 3.73634 19.2213 3.73092Z" fill="#263238"/>
<path d="M20.9689 3.72321C20.8938 3.70874 20.8197 3.6897 20.747 3.66619C20.6663 3.65806 20.5907 3.62274 20.5327 3.56602C20.5171 3.54539 20.5087 3.52023 20.5087 3.49436C20.5087 3.46848 20.5171 3.44332 20.5327 3.4227C20.5719 3.38822 20.6196 3.36488 20.6708 3.35512C20.722 3.34536 20.7749 3.34954 20.824 3.36722C20.9287 3.38693 21.0222 3.44523 21.086 3.53057C21.0989 3.55031 21.106 3.5733 21.1064 3.5969C21.1068 3.62049 21.1005 3.64372 21.0883 3.66388C21.076 3.68405 21.0583 3.70032 21.0372 3.71082C21.016 3.72132 20.9923 3.72562 20.9689 3.72321Z" fill="#263238"/>
<path d="M19.4447 5.75899C19.4863 5.79906 19.5279 5.85454 19.5988 5.8607C19.6629 5.85879 19.7259 5.84357 19.7838 5.81601C19.7838 5.81601 19.7945 5.81601 19.7915 5.82526C19.7668 5.85919 19.7335 5.88583 19.695 5.90238C19.6565 5.91893 19.6142 5.92476 19.5726 5.91926C19.5371 5.91022 19.5052 5.89067 19.481 5.86318C19.4568 5.83568 19.4415 5.80151 19.437 5.76516C19.4262 5.75745 19.4385 5.75283 19.4447 5.75899Z" fill="#263238"/>
<path d="M20.1506 5.44464C20.0782 5.54015 19.982 5.61506 19.8717 5.66193C19.8113 5.68539 19.7451 5.68969 19.6821 5.67426C19.545 5.63881 19.5404 5.52015 19.565 5.40303C19.5797 5.34605 19.6004 5.29078 19.6267 5.23813C19.7747 5.36125 19.9584 5.43363 20.1506 5.44464Z" fill="#263238"/>
<path d="M19.8717 5.66192C19.8113 5.68537 19.7451 5.68968 19.6821 5.67425C19.545 5.6388 19.5404 5.52014 19.565 5.40302C19.6378 5.40537 19.7077 5.4322 19.7633 5.47919C19.819 5.52617 19.8572 5.59055 19.8717 5.66192Z" fill="#FF9BBC"/>
<path d="M21.0506 2.55353C20.9566 2.3347 20.8472 2.11432 20.7146 2.06963C20.5821 2.02494 20.4973 2.34857 20.1968 2.3686C19.7931 2.39634 19.5973 2.02494 19.0318 1.98487C18.2181 1.92939 17.8605 2.60131 17.842 3.7602C17.8251 4.78965 17.2025 4.88674 17.2025 4.88674C17.2025 4.88674 16.8249 2.61672 17.4645 1.86467C18.104 1.11262 19.5727 0.785904 20.559 1.49789C20.918 1.75833 21.0506 2.55353 21.0506 2.55353Z" fill="#263238"/>
<path d="M17.7218 4.48297C17.7218 4.48297 17.2487 3.60917 16.8588 3.7679C16.4689 3.92663 16.7586 5.15488 17.167 5.35985C17.2182 5.39059 17.2751 5.41066 17.3342 5.41884C17.3933 5.42703 17.4535 5.42315 17.5111 5.40746C17.5687 5.39176 17.6225 5.36457 17.6693 5.32752C17.7161 5.29047 17.755 5.24432 17.7835 5.19187L17.7218 4.48297Z" fill="#F7A9A0"/>
<path d="M16.9513 4.11465V4.12544C17.2395 4.27955 17.3658 4.58777 17.4444 4.8852C17.4304 4.85291 17.4095 4.82405 17.3832 4.80062C17.3569 4.77719 17.3258 4.75975 17.2921 4.74949C17.2584 4.73923 17.2229 4.73641 17.188 4.74122C17.1531 4.74602 17.1197 4.75834 17.09 4.77732C17.0807 4.77732 17.09 4.79582 17.09 4.79427C17.1451 4.78371 17.2022 4.79031 17.2534 4.81318C17.3047 4.83605 17.3477 4.8741 17.3766 4.92219C17.4233 5.00385 17.4616 5.09009 17.4907 5.17955C17.5015 5.20729 17.5523 5.19958 17.5446 5.16722V5.15951C17.597 4.77424 17.3597 4.20096 16.9513 4.11465Z" fill="#263238"/>
<path d="M20.9535 1.87701C20.7146 1.81999 19.3908 1.86006 18.7959 2.11588C18.2011 2.3717 17.1439 3.227 17.09 3.27169C17.036 3.31639 16.7633 1.13421 18.534 0.736605C20.4619 0.302019 20.9535 1.87701 20.9535 1.87701Z" fill="#D60665"/>
<path d="M17.1917 3.1823C17.1917 3.1823 18.3613 1.64121 19.0117 1.28676C19.662 0.932312 21.1183 0.735053 22.0199 1.13265C22.7211 1.44087 21.0074 2.34395 21.0074 2.34395C20.9912 2.27 20.9579 2.20086 20.9103 2.14201C20.8627 2.08315 20.802 2.03621 20.7331 2.00491C20.2954 1.83077 19.4632 1.96484 18.9886 2.12357C18.3906 2.32546 17.1917 3.1823 17.1917 3.1823Z" fill="#D60665"/>
<path opacity="0.2" d="M17.1917 3.19C17.1917 3.19 18.3613 1.63967 19.0117 1.28676C19.662 0.933852 21.1183 0.735051 22.0199 1.13265C22.7211 1.44087 21.0074 2.34395 21.0074 2.34395C20.9912 2.27 20.9579 2.20086 20.9103 2.142C20.8627 2.08315 20.802 2.03621 20.7331 2.00491C20.2954 1.83076 19.4632 1.96484 18.9886 2.12357C18.3906 2.32545 17.1917 3.19 17.1917 3.19Z" fill="black"/>
<path d="M15.1482 10.2944C15.0495 13.3335 16.1715 19.0247 16.9975 19.4115C19.6636 20.6567 24.1497 20.7353 25.6861 20.7492C26.3488 20.7492 27.3659 16.0365 26.7094 15.7715C26.2733 15.5958 19.6959 15.5942 19.5803 15.36C19.4648 15.1257 17.8975 11.7415 17.2209 9.86754C16.3225 7.3756 15.2052 8.50985 15.1482 10.2944Z" fill="#F7A9A0"/>
<path d="M26.0037 15.7083C26.0037 15.7083 28.0179 15.8315 29.3293 15.9733C30.0629 16.0519 31.3065 16.3 31.8166 16.6036C32.5872 17.0659 35.4906 19.4516 34.9266 20.1697C34.4149 20.8185 32.1773 18.4468 32.1773 18.4468C32.1773 18.4468 34.643 20.6397 33.8879 21.3101C33.1327 21.9805 30.9598 18.9615 30.9598 18.9615C30.9598 18.9615 33.4471 21.2731 32.5548 21.8402C31.8814 22.2671 29.7593 19.6457 29.7593 19.6457C29.7593 19.6457 31.8845 21.6491 31.2095 22.1115C30.4636 22.6308 28.3538 20.3331 28.3538 20.3331C26.4382 21.2392 25.1561 20.8863 24.273 20.5272C24.0557 20.4471 26.0037 15.7083 26.0037 15.7083Z" fill="#F7A9A0"/>
<path d="M31.3712 17.6331C31.6702 17.8797 31.9753 18.1278 32.2512 18.4036C32.527 18.6795 32.7952 18.96 33.0449 19.2574C33.3789 19.64 33.6685 20.0593 33.9079 20.5072C33.4255 19.7367 32.4515 18.7504 32.1741 18.4776C31.8967 18.2048 31.6363 17.9182 31.3604 17.6454C31.3527 17.6362 31.3635 17.6269 31.3712 17.6331Z" fill="#263238"/>
<path d="M30.368 18.6132C30.7363 18.9445 31.1139 19.262 31.4683 19.6103C31.8228 19.9586 32.1248 20.3177 32.4531 20.6891C32.4777 20.7168 32.4531 20.7214 32.4269 20.6891C32.0847 20.3331 31.7411 20.0295 31.3959 19.6766C31.0507 19.3237 30.7163 18.9569 30.3587 18.6178C30.3526 18.6163 30.3618 18.6086 30.368 18.6132Z" fill="#263238"/>
<path d="M29.3493 19.299C29.9273 19.7947 30.4525 20.3489 30.9166 20.9526C30.9397 20.9819 30.9088 20.9849 30.8826 20.9526C30.3725 20.3932 29.9765 19.9509 29.3323 19.3175C29.3277 19.3098 29.3493 19.2897 29.3493 19.299Z" fill="#263238"/>
<path d="M31.5623 16.3601C31.0835 16.1556 30.5753 16.0282 30.0567 15.9826C28.9378 15.8454 27.8128 15.756 26.6878 15.6744C25.5628 15.5927 24.4209 15.5202 23.2867 15.4786C22.6487 15.454 22.0106 15.435 21.3726 15.4216C20.7346 15.4093 20.6021 15.4324 19.961 15.4401C19.944 15.4401 19.9456 15.4632 19.961 15.4648C21.0783 15.5233 21.6947 15.5696 22.812 15.6281C23.9293 15.6867 25.0435 15.7529 26.1577 15.83C27.2719 15.9071 28.3676 15.9841 29.468 16.1074C30.0002 16.1435 30.5279 16.2286 31.0445 16.3617C31.5505 16.5476 32.02 16.8209 32.4315 17.1692C32.903 17.5406 34.6707 19.2404 34.8325 19.4608C34.8525 19.487 34.8602 19.4793 34.8494 19.4454C34.7215 18.9846 32.5964 16.8425 31.5623 16.3601Z" fill="#263238"/>
<path d="M18.3305 12.2562L15.0526 14.1148C15.0526 14.1148 14.9139 9.97235 15.2175 8.74257C15.5596 7.35559 16.1915 7.83641 16.9035 8.98914C17.6154 10.1419 18.3305 12.2562 18.3305 12.2562Z" fill="#D60665"/>
<path opacity="0.1" d="M18.3305 12.2562L15.0526 14.1148C15.0526 14.1148 14.9139 9.97235 15.2175 8.74257C15.5596 7.35559 16.1915 7.83641 16.9035 8.98914C17.6154 10.1419 18.3305 12.2562 18.3305 12.2562Z" fill="black"/>
<path d="M17.8791 11.7261C17.4306 11.9064 16.1577 12.6369 15.9465 12.7555C15.8356 12.8172 15.401 13.0869 15.29 13.1485C15.2762 13.1562 15.29 13.1763 15.3039 13.1686C15.5181 13.0514 15.7431 12.9559 15.9589 12.8403C16.1746 12.7247 17.5 12.0282 17.8883 11.7415C17.8898 11.7401 17.8907 11.7381 17.891 11.7361C17.8913 11.734 17.8908 11.7319 17.8898 11.7302C17.8887 11.7284 17.8871 11.727 17.8851 11.7263C17.8832 11.7255 17.8811 11.7255 17.8791 11.7261Z" fill="#263238"/>
<path d="M17.8143 10.7228C17.7634 10.5302 17.711 10.3391 17.6525 10.148C17.6849 10.2898 17.7218 10.4316 17.7588 10.5734C17.6402 10.3052 17.5184 10.0401 17.3859 9.78278H17.3782C17.5215 10.2004 17.6864 10.6103 17.8405 11.0249C17.9946 11.4394 18.1487 11.8355 18.3028 12.2408C18.2335 12.2947 18.1657 12.3471 18.0948 12.3949C18.0919 12.3968 18.0899 12.3997 18.0892 12.403C18.0885 12.4063 18.0891 12.4098 18.0909 12.4126C18.0928 12.4155 18.0957 12.4175 18.099 12.4182C18.1023 12.419 18.1058 12.4183 18.1086 12.4165C18.1934 12.3733 18.2782 12.3302 18.366 12.2917C18.3762 12.2878 18.3845 12.2803 18.3894 12.2706C18.3942 12.2609 18.3952 12.2497 18.3922 12.2393C18.2196 11.7353 18.0285 11.2237 17.8143 10.7228Z" fill="#263238"/>
</svg>
